<svg xmlns="http://www.w3.org/2000/svg" viewBox="0 0 512 512">
  <defs>
    <linearGradient id="bg" x1="0" y1="0" x2="1" y2="1"><stop stop-color="#f7f3ec"/><stop offset="1" stop-color="#e6dfd5"/></linearGradient>
    <linearGradient id="hat" x1=".25" y1=".2" x2=".8" y2=".7"><stop stop-color="#7a9e7e"/><stop offset="1" stop-color="#4a6e4e"/></linearGradient>
    <linearGradient id="feather" x1=".6" y1=".45" x2=".85" y2=".22"><stop stop-color="#cca457"/><stop offset="1" stop-color="#b8883a"/></linearGradient>
  </defs>
  <rect width="512" height="512" fill="url(#bg)"/>
  <circle cx="256" cy="256" r="164" fill="none" stroke="#7a9e7e" stroke-opacity=".14" stroke-width="9"/>
  <path d="M102 297C154 240 205 171 261 149C297 215 349 260 410 272C362 330 262 357 164 333C137 327 116 314 102 297Z" fill="url(#hat)"/>
  <path d="M149 297C220 282 299 296 374 271" fill="none" stroke="#f5f0e8" stroke-opacity=".45" stroke-width="13" stroke-linecap="round"/>
  <path d="M307 220C353 172 392 139 430 123C414 176 371 225 318 250Z" fill="url(#feather)"/>
  <path d="M321 235C356 194 394 151 426 126" fill="none" stroke="#fff8e6" stroke-opacity=".6" stroke-width="4" stroke-linecap="round"/>
  <path d="M174 379C221 352 278 393 339 360" fill="none" stroke="#b8883a" stroke-opacity=".75" stroke-width="9" stroke-linecap="round"/>
  <circle cx="151" cy="386" r="10" fill="#b8883a"/>
</svg>
